<svg viewBox="-87 1 511 511.9999" xmlns="http://www.w3.org/2000/svg">
  <path fill="#FEFFFF" d="m330.417969 173.222656c4.191406 0 7.59375-3.394531 7.59375-7.59375v-107.667968c0-9.355469-7.605469-16.960938-16.960938-16.960938l-164.796875-.03125c-3.535156-23.167969-23.59375-40.96875-47.730468-40.96875h-26.550782c-9.398437 0-17.042968 7.636719-17.042968 17.03125v23.925781h-47.46875c-9.355469 0-16.960938 7.605469-16.960938 16.960938v437.089843c0 9.347657 7.605469 16.949219 16.949219 16.960938 116.527343.039062-26.179688.03125 303.601562.03125 9.355469 0 16.960938-7.617188 16.960938-16.960938v-299.035156c0-4.191406-3.402344-7.59375-7.59375-7.59375-4.191407 0-7.59375 3.402344-7.59375 7.59375 0 319.042969.863281 300.804688-1.773438 300.804688h-178.292969c8.695313-8.980469 14.0625-21.222656 14.0625-34.6875v-405.964844l164.230469.03125c.984375 0 1.773438.789062 1.773438 1.773438v107.667968c-.003907 4.199219 3.398437 7.59375 7.59375 7.59375zm-188.785157 226.472656v27.9375c-8.699218-8.195312-20.394531-13.164062-33.113281-13.164062h-26.546875c-1.023437 0-1.855468-.832031-1.855468-1.84375v-287.308594c0-4.191406-3.390626-7.59375-7.59375-7.59375-4.191407 0-7.59375 3.402344-7.59375 7.59375v287.308594c0 9.394531 7.644531 17.03125 17.042968 17.03125h26.546875c16.699219 0 30.8125 12.496094 32.847657 29.050781.050781.425781.132812.832031.265624 1.226563v2.1875c0 19.125-15.5625 34.6875-34.691406 34.6875-51.808594-.015625-75.746094-.023438-89.480468-.027344-.984376 0-1.773438-.800781-1.773438-1.773438v-437.089843c0-.980469.789062-1.769531 1.773438-1.769531h47.46875v38.730468c0 4.191406 3.402343 7.59375 7.59375 7.59375 4.203124 0 7.59375-3.402344 7.59375-7.59375 0-7.375 0-70.464844 0-77.847656 0-1.023438.832031-1.84375 1.855468-1.84375h26.546875c15.738281 0 28.941407 11.027344 32.28125 25.769531 1.222657 5.378907.820313-18.425781.820313 358.542969 0 .0625 0 .132812.011718.195312zm0 0"></path>
  <path fill="#FEFFFF" d="m297.457031 81.449219h-115.433593c-4.195313 0-7.59375 3.402343-7.59375 7.59375 0 4.195312 3.398437 7.59375 7.59375 7.59375h115.433593c4.195313 0 7.59375-3.398438 7.59375-7.59375 0-4.191407-3.398437-7.59375-7.59375-7.59375zm0 0"></path>
  <path fill="#FEFFFF" d="m297.457031 122.964844h-115.433593c-4.195313 0-7.59375 3.402344-7.59375 7.59375 0 4.195312 3.398437 7.59375 7.59375 7.59375h115.433593c4.195313 0 7.59375-3.398438 7.59375-7.59375 0-4.191406-3.398437-7.59375-7.59375-7.59375zm0 0"></path>
  <path fill="#FEFFFF" d="m297.457031 164.480469h-115.433593c-4.195313 0-7.59375 3.402343-7.59375 7.59375 0 4.195312 3.398437 7.59375 7.59375 7.59375h115.433593c4.195313 0 7.59375-3.398438 7.59375-7.59375 0-4.191407-3.398437-7.59375-7.59375-7.59375zm0 0"></path>
  <path fill="#FEFFFF" d="m297.457031 205.996094h-115.433593c-4.195313 0-7.59375 3.402344-7.59375 7.59375 0 4.195312 3.398437 7.59375 7.59375 7.59375h115.433593c4.195313 0 7.59375-3.398438 7.59375-7.59375 0-4.191406-3.398437-7.59375-7.59375-7.59375zm0 0"></path>
  <path fill="#FEFFFF" d="m297.457031 247.511719h-115.433593c-4.195313 0-7.59375 3.402343-7.59375 7.59375 0 4.195312 3.398437 7.59375 7.59375 7.59375h115.433593c4.195313 0 7.59375-3.398438 7.59375-7.59375 0-4.191407-3.398437-7.59375-7.59375-7.59375zm0 0"></path>
  <path fill="#FEFFFF" d="m297.457031 289.027344h-115.433593c-4.195313 0-7.59375 3.402344-7.59375 7.59375 0 4.195312 3.398437 7.59375 7.59375 7.59375h115.433593c4.195313 0 7.59375-3.398438 7.59375-7.59375 0-4.191406-3.398437-7.59375-7.59375-7.59375zm0 0"></path>
  <path fill="#FEFFFF" d="m182.023438 420.664062c-4.195313 0-7.59375 3.398438-7.59375 7.59375v34.425782c0 4.195312 3.398437 7.59375 7.59375 7.59375h115.433593c4.195313 0 7.59375-3.398438 7.59375-7.59375v-124.546875c0-4.191407-3.398437-7.59375-7.59375-7.59375h-115.433593c-4.195313 0-7.59375 3.402343-7.59375 7.59375v59.742187c0 4.195313 3.398437 7.59375 7.59375 7.59375 4.195312 0 7.59375-3.398437 7.59375-7.59375v-52.148437h100.246093v109.359375h-100.246093v-26.832032c0-4.195312-3.398438-7.59375-7.59375-7.59375zm0 0"></path>
</svg>